<mxfile host="app.diagrams.net" modified="2023-07-21T02:34:17.472Z" agent="Mozilla/5.0 (Windows NT 10.0; Win64; x64) AppleWebKit/537.36 (KHTML, like Gecko) Chrome/114.0.0.0 Safari/537.36 Edg/114.0.1823.82" etag="4RSJykYGmz6hD7qujGAc" version="21.6.3" type="github">
  <diagram name="第 1 页" id="kugMPf8pj-p5QBVrfuOM">
    <mxGraphModel dx="1155" dy="1772" grid="1" gridSize="10" guides="1" tooltips="1" connect="1" arrows="1" fold="1" page="1" pageScale="1" pageWidth="850" pageHeight="1100" math="0" shadow="0">
      <root>
        <mxCell id="0" />
        <mxCell id="1" parent="0" />
        <mxCell id="6JiF-p55o-i1GSawW8Ff-29" value="" style="rounded=0;whiteSpace=wrap;html=1;" vertex="1" parent="1">
          <mxGeometry y="-1100" width="1640" height="510" as="geometry" />
        </mxCell>
        <mxCell id="6JiF-p55o-i1GSawW8Ff-30" value="1. 店铺画像" style="text;html=1;align=center;verticalAlign=middle;resizable=0;points=[];autosize=1;strokeColor=none;fillColor=none;fontStyle=1" vertex="1" parent="1">
          <mxGeometry x="30" y="-1060" width="80" height="30" as="geometry" />
        </mxCell>
        <mxCell id="6JiF-p55o-i1GSawW8Ff-31" value="" style="shape=image;verticalLabelPosition=bottom;labelBackgroundColor=default;verticalAlign=top;aspect=fixed;imageAspect=0;image=data:image/png,iVBORw0KGgoAAAANSUhEUgAAAkUAAABOCAYAAAAuJmIrAAATL0lEQVR4nO3dvW6r0JrG8b9H50ZGwi4srgD6kUgaV27poHSkkTuX7jyFKZ2O1pWbGM0FwBUgFwbNrTAFOME24I/YSc45z0/a2nvHfL5eLN61WKz0iqIoEBEREfk39w+AXq/328chIiIi8uPqfUP/aPqhHOv1eopPB8Wnm+LTTfHppvh0U3y6KT7dTjuF/uOXjkNERETkT1FSJCIiIoKSIhERERFASZGIiIgIoKRIREREBFBSJCIiIgIoKRIREREBlBSJiIiIAEqKRERERAAlRSIiIiKAkiIRERERQEmRiIiICKCkSERERARQUiQiIiICKCkSERERAZQUiYiIiABKikREREQAJUUiIiIigJIiEREREUBJkYiIiAigpEhEREQEUFIkIiIiAigpEhEREQGUFImIiIgASopEREREACVFIiIiIoCSIhERERFASZGIiIgIoKRIREREBFBSJCIiIgLckhRFPrYfkF+9uI0fNCydB9h2QBQENH0MEAU+QZSfrGZjt63wF/xgfGoLE9g2fvSH43Lwk+XHb4pJhG/7/NlQ/Wj5yWv7ifB7PtHnR/nfjdGfUF5zzaFv+U7+uhvLXrf2+FzzeRRFDzqOR4rwe13n9Aw/XLf/yv3rb/rH1Us6K0J8XNtnFq5wjI5l84B5OiZctSxkDnAmffa2TRDGTI4Wi9isYRQfr2tMQma+i+3PiFdO+74jH3uetn9uXlj/Xj8Wn/pmXN4Yk3XurGnFiOADXicOBpQx24wIV9X/n+Gn4hP5vLwnWKmLPa8WH4eMdi+8JxapazP/2hCzeIVztLrNftoe86f5yfITLXDnQ8J4Un7f1pB+uWECt8/a3NL/TlmIfHqbEcXd11mEb8/puIprTMbhqv37ygNsF8J4AoGNy4x40nJcZ3VH27ZNBg37MyYhQ7uPTUY8MTrronHHdX3ZA+MD15e9b8bnksi3eUlNtn0H47vXX56Tk5Fle/abNev0/Fonz4k+FmwGKzqLarTh3ZtRXHFMeRSR9fs4DScQ+T3mw4xwkIFz6foymMQhgd3H3lfl6ZmeXf/kAb67vrLMfm6oKl85eZSRAbBns9mRpinmLGa6t3HXDWuOQ1Z3xqw1KYp8m6brOUkS5m5au7GAOYtrhSoncN9IEgvXXpcnNob1+rCxhCQBO7XK/7o2u9r6eTAnHYesgDzPMbIF9gbMck/ABt/fACkMW058HDYXojzAXrTG4ia/FZ/aAdB/S6pFzkuFOQtZfZbsnMB2WVfHZ1ke49mILAfDgGiTYo5WD02Ific+Ef4ctkVBP7BZDGJWTk4UuMyHGUUBQXmHbL5JHC52g+7kuq183eBXy4+zItzb9P0Bxap+TC7rcUsF3FGpmeOQ1evHZ/JhANawf10gGjms4s8KAXsxOG7IRD72fnr9d2AOMIAcMAcXErXP7zYnsBc33twNJnEGQQYY4KyIG3YX+Tb7WzZ75nvxub/s8c34tMmJfJc5M7L4EQ2znMB1YTZj0H/ldTqprvcIv/fCOwAWlgXmeMyInByD8rJviE2SACl2OueMOSZcTb6OeT9nQ9yaVJgDA/Yu7nz/1Si50JBP3lzOq/grkt0OP1//TFjFk/Md5gF2f8esOElYjxjQzyCDfdljQlzVW/n+vIzmgc3iOwWzKIqi+uvI1rOKZXb8s2zpFd42O1u2tkSx9azCOl3xeCOF5W1bPtwWnrUsssNyeMV26TVuL1u27GfbvPzlfbf7O/GpFtl6hWV5ReNSW69l/azavFUcf7wtPCiwrMI6+uMVnadS8yfik20Lz6qdW7YsvMblloV1KGMn+15a58d8vL+WZS74E/Fp2NZyuS2ywzW3vW69r/JTu1ZP99t1DTZoik9th+fHdcv2a+ufl/0TR9vNimXjNdby89Zy1bSb28rQo+NzX9k73e6N8Tn6vLb/6rq9pbycOo9P2zGclNlr3HjP6CpjW4/Pz7Kld0UZuON4G/zN+uew+G3f/Wl8m+J98To/cRqf6x+fAZCWWVub/IPNcHZnKzon8l9I8Vj4PqQp4yzGyXzmNzarmjNrgITE3N5xbNd6Znzg0KJ6SU224ZS9H9Cvt1Kqx2DNjweb95kHc9gWFM7RD7EXg+4u1Ls8MT5GrfUMYExYrah6OGAUT8qWiDEhjht2HbisxyFx1dVru7uyGznbwfD18/jW5oz44XE5eG75aWodrtdlyy6dly072649XGzpgv5WJ9DT5QR2n92s6H4kQoRvbxheaG3vA5/5+jhoSdkUxjptrVc9Us29at9r2T/fhbLX4qb4HMmJggXzt7Keb3sSc793XuwU6/DfcUhTR0W3nMBdMw6rCuPGYQZ54OPWY5NA8m5z6ERh7TM4faT3q559/zqvg5IkARru10fDXGqPi5OEhCqG5oxwePehtLoxKYL3l9qXenDoQjQmTPGPKlbMGfF0X6skTrrXPk/eoD/dEtKHjwUus/JCySBZL/B3J/tMExg3HKCzoihuPavHeV58AAz6oxlZdVH2Rztc22YcxrxmPov9lLixdmkuVOZ4TLoeE8Ycjb3IFmvMUUPm8ADPjQ8NN6Tqpm+vj8YSHVXWkY/7BngLfJ8yIQ+rLvCstumP58Xl4JnxcVZxrQI+PLKwsBIwxzOmk7bKPifwXdZpVYmtbda1uILJ7Bm1010MJjOP3iZi5XSNPdzwbo4ujhMZTFYnN9PqsdGFm1l6Ui6//8js+TrLXss698YHDJzXEbxeGL9yN4/t4RgiH/vG4Od5RLaYfzWUKgktacOh3jnUr96Y2TA9erSTBzYuHY/eO+quuvEspm1Y3Hc9vX7mMJ6uLCezoqqT6o+Bz4a5HBq8ZYPHPBlu82g3J0XetmF8S40xWRFPGi6MQ3A6Tt4wHCDC3w0JazuxxtOGFmttMMRNAw8/D+gpLbdnxgfAqFX0hrMi7gfYrs8g7Bos2FKo8pzo1fi6yKuWrnF083ysZ8cH4/TZdYRv75nG7RU7zpQwoxxgFdi4w/Cz5Zrv03IcABGLt4R3yyadNwzafJCnxwfIo4DFfA2zkNjJ8NM9o8Gehf1Cai6ZTScnNyqDySpmcnTDO4lrHvCY6un0Wj6pZKFK7NNa6/LkWnamLOcuQe7Q3DmQE8xTluHq7JN6L3OSmGwp4/XRn/yRXp4HxKfFpbIHd8bn5GafJAm4NuVm5i3l5knXWPLWMgbz+NyzxZyXdEx2bRdWVe/kn2MZgWjHpr7IwKTMjPPWsY3pWQ/Jcd0V+Tb7J/bU/kT9c7f8g3UCyYvPKHtWMn1HUnS395fqwq1fxKePs3ICe84wjDHyr9eGWx+HfbZiTh6dEOH3Now6B2/9MVfF51ge+bgv7ySWxfzorSqA8ddAvoNowVsCvNgMs5iJYfzrxKd1IHBza+ugrAyN8m2XyMfezY5627IdpLuAqD9hVRSsqh61P/cE6Yrykwc2/bcEy1syO/SEkUGyA2fFypmUCZPb48Xcnr89ln+wZkjYtH/jldnoESdyci1Xb7LdNtDa4HUM7kfO5LXh42jBm9n8NpG1PB5IXG5tx5sb8NqVWJ/6/D5KSQLL6bUrd3lEfO53V3yOGirHCcGPv+1pLat6sa1Hqxqi8J7gbWMIfOzDI7AkAd5r3+vlxO2r56XqTd1kkO9ZU73Q8a/ijvvX8SPOy0NbosUa07MwhyM2rs1mFjOloXcrSWCZc2/WdDEpOnoGWH+eVzkad1C7MdWfK8/iEXjbi5lkHri8JQmWa7MzTRhOmZKCV3bR2YvB198r8Nv6RKMN796I83bg4/1kfKqNVM/i32GZERdNZxk1xKZsHXueBaMZO7d6XTILsDcDwqrCziMf94EV6o/F56yHqEG1fOPjgLx8c20WO9XrvIABe8aEU1h85DgTo8ySxtOHvan3k+XHmIRkr8bx687VtXK4XxvOpHxT5OxIv8ZXfK6erFkEMH2dYBgGjlO+dvySeiwfVOPn+xRreHs2YbyOob8gej19rNfeS9TKmbKc91lEk4s9KZ8O30flWY/P7o0P3Fj2utwTn8OqI5P5rQnnVWo33Gsz0jzC77+QLjOypcuCQ89I9XlTAtq1uX1a9bxUCaQxwEz3RA+uQ77j5+9fdbVHnJeWjXzmzAiHcxYDh1UIEWA4McXNY8W6tSRFOftak7t1To3TZ7WfN6bTLDw66kZsY0xOTzAnsBNIXrBTqgy09jdLmop6tHmH95ZXKLvO52q/EZ+cyO/z8m7hLWeEW3BvqWWjBWuzKlQ4rMI+uVFl36MYo6qyDWfKeO7iDy53pXcd62+Un4tzVFWtGDcte42+LviyMnzHIrVt5qaJOZyyev1gPXxlYhiMdj4RU/ZzmH17pPVvxKflEXOSgJXi2k3XyldLOI8+2I3D2oBYh1XRJ7AXZJOvcRbOquCRQ/qyXYI5umfg/Suz7YD+aSqyz2Ac3nj9l+OU/H3OX+tavT0+d5a9Tt+Ij7NitrFxg9cH9mxl7FiSnSZa+Uf3EAvDYVUNSM2DBx3KEYeROedlbrJ93tsaV/il+vnMtT1FEf5LyjhbwUdVTxlOte9ySEg5lQhXjmfr1pIUZewYMzWOxpl+z63da3lOzgdrLKwbe4qcVUFjBwqParH9RnyM4/OKbiiGeYB96AU5DEwzDIzILyezK4cbfe5nEs/K2Z+dewvXL5Wf2rwwUeCfT8rWNKdLuWL5aOxrQfIcosWO8bTM0p3pEN92Scch3x9q/RvxOX3EDIfKbRaO2LgbRh2VieFMWOFj221vGn35zsRpx4cXMH/3mN3V5WvgOEY5kUndwLlvkKpzKEtXTtP7tMdnNXfF5wllD26Pz0Ge01+FjG0Xf1CfW+0b8j3p4U3Auqf30ORkO3h/6/GOh+d9vbgK1QSpQ4DRL+fWf+D+DlzfU9RntA1xjIbSFS1Ym9vPhHoyA9sO6H+j57H513xEG96bCtWt8upXK0DZvRbHxOESq/7vr4UJfBvbLv/4iw8W7hpzNqsmbnyEnH1632yrR34lPt9gTIjPZnOtEqXG7iCHVThif+807X8gPs5kBPPrp8nPo4gg8Muy53/w8bFgPpxWLahywrJ3gPXH938Nxh+Iz2HsxG62wjHK73tjn/96nSPOqtzu55+QpeWxPfpZ/JiEqIq5uf3ZcYHJm1vVQS7V3Ki3MybERXEUk6J49LiZO+PzzbL3kPgA5TAAH9tdkOXl7M2jjYvtB9++vsq3RBsaAPP36qWJJ4h8erbLZjgjKwqKbEiajnklwvfLiXPJAxa7MV66+fq1OqfSfXNamQfYvR7zdPzvd/86NHCa9n96D3NWzMw17jd+x8h5T1EeYL+kLLND8yPh7fNNgROtzZ+MXfLOmwvbsHxT5XK/xuENl0rkY6djQgcWG8CYUA4DcAinOfmlrtCz88rJPxa8maPvde//WnwaNt81H1PLo8VPLfP1fH3e9ubOBX8mPg6ruE+eXzWjCNkeXl9XTCbVObhDwtio3tR6IzW35VQIeYDdt5l7Y8Lp5PZfR/Cr8cnJ84yPxZx1ajKehV89aUYZr8h36c3BG88YDfrNldHTlY+K38zt8fxZF1drGmxfa7k2jJk4HSx7PJDYZV8fr1n96ohdAoO7z+0R7o/Pd8veY+KT8NZ3y2EAnzNYGzirmH7k47o9XvDKsn1z8YtYvJmMTiv5aMEbS7Jb4rU5eRx/NtCar5d9nFXtuyjH35mzGMPIGU1DptkH7mHG98jHDiL2uznUB5l31cnGhPgRg2d+vX7+2t9xL/MtPUyUCZFbvpR11u+/mrGxXYLXOxsiTTM6ZtnXDJNds6+2z0aZFdvl9ni229pM1Z63LYqtVwCXZ7NsmCk2W1oFllV4F9bNllYBFFDO0uzVj+kGfzI+nbPWbguP5lllm2b73HpljO6Y7Lsoij8an5PtLa1y1u6Ls/YWRZFtt2XssmVhWV6xPF0n2xbba6f7Lv5KfMoYNJ7P2eazYrv0iuVneahmHW74Q+Ns6Fb7jOsNzuKz9Lpnh75xxuyrZdvOWdw/r5OmfV8zk2+2LCwoLO+2WYofGZ9vlb3vxOdrqcK7Yrb87IYAHcUn2xbL82npy/KcHf+sa+btW2dFPl7XO45Btiy8k+9861kFLXV0banWevwWf6P+uby/2o6bfxtB8fW9ZNtlrX5qWjC7+ho7jU+vKIqi1+tR/OaMh3+c4tNN8emm+HRTfLopPt0Un26KT7fT+DSPKRIRERH5N6OkSERERAQlRSIiIiKAkiIRERERQEmRiIiICKCkSERERARQUiQiIiICKCkSERERAZQUiYiIiABKikREREQAJUUiIiIigJIiEREREUBJkYiIiAigpEhEREQEUFIkIiIiAigpEhEREQGUFImIiIgASopEREREACVFIiIiIoCSIhERERFASZGIiIgIoKRIREREBFBSJCIiIgIoKRIREREBlBSJiIiIAEqKRERERAAlRSIiIiKAkiIRERERAHr/+d//Vfz2Qfyz+L//+d/fPoQ/qdfrURQqRm0Un26KTzfFp5vi003x6XYan3/84rH80+n1er99CH+WYtNN8emm+HRTfLopPt0Un+v9P4wh0AdxcMQ3AAAAAElFTkSuQmCC;" vertex="1" parent="1">
          <mxGeometry x="150" y="-1030" width="223.46" height="30" as="geometry" />
        </mxCell>
        <mxCell id="6JiF-p55o-i1GSawW8Ff-32" value="1） 店铺数据" style="text;html=1;align=center;verticalAlign=middle;resizable=0;points=[];autosize=1;strokeColor=none;fillColor=none;" vertex="1" parent="1">
          <mxGeometry x="20" y="-1030" width="90" height="30" as="geometry" />
        </mxCell>
        <mxCell id="6JiF-p55o-i1GSawW8Ff-33" value="2. 销售目标" style="text;html=1;align=center;verticalAlign=middle;resizable=0;points=[];autosize=1;strokeColor=none;fillColor=none;fontStyle=1" vertex="1" parent="1">
          <mxGeometry x="30" y="-970" width="80" height="30" as="geometry" />
        </mxCell>
        <mxCell id="6JiF-p55o-i1GSawW8Ff-34" value="1） 新店老店定义" style="text;html=1;align=center;verticalAlign=middle;resizable=0;points=[];autosize=1;strokeColor=none;fillColor=none;" vertex="1" parent="1">
          <mxGeometry x="20" y="-950" width="120" height="30" as="geometry" />
        </mxCell>
        <mxCell id="6JiF-p55o-i1GSawW8Ff-35" value="无完整同期销售数据，则定义为新店，" style="text;html=1;align=center;verticalAlign=middle;resizable=0;points=[];autosize=1;strokeColor=none;fillColor=none;" vertex="1" parent="1">
          <mxGeometry x="20" y="-932" width="230" height="30" as="geometry" />
        </mxCell>
        <mxCell id="6JiF-p55o-i1GSawW8Ff-36" value="有完整同期销售数据，则定义为老店。" style="text;html=1;align=center;verticalAlign=middle;resizable=0;points=[];autosize=1;strokeColor=none;fillColor=none;" vertex="1" parent="1">
          <mxGeometry x="20" y="-910" width="230" height="30" as="geometry" />
        </mxCell>
        <mxCell id="6JiF-p55o-i1GSawW8Ff-37" value="2） 销售目标制定" style="text;html=1;align=center;verticalAlign=middle;resizable=0;points=[];autosize=1;strokeColor=none;fillColor=none;" vertex="1" parent="1">
          <mxGeometry x="20" y="-880" width="120" height="30" as="geometry" />
        </mxCell>
        <mxCell id="6JiF-p55o-i1GSawW8Ff-38" value="新店按店铺特征，取对照门店 同期销售数据。" style="text;html=1;align=center;verticalAlign=middle;resizable=0;points=[];autosize=1;strokeColor=none;fillColor=none;" vertex="1" parent="1">
          <mxGeometry x="30" y="-850" width="270" height="30" as="geometry" />
        </mxCell>
        <mxCell id="6JiF-p55o-i1GSawW8Ff-39" value="对照依据：面积&amp;amp;等级&amp;amp;类型" style="text;html=1;align=center;verticalAlign=middle;resizable=0;points=[];autosize=1;strokeColor=none;fillColor=none;" vertex="1" parent="1">
          <mxGeometry x="285" y="-850" width="170" height="30" as="geometry" />
        </mxCell>
        <mxCell id="6JiF-p55o-i1GSawW8Ff-40" value="老店的对照门店，即本身。" style="text;html=1;align=center;verticalAlign=middle;resizable=0;points=[];autosize=1;strokeColor=none;fillColor=none;" vertex="1" parent="1">
          <mxGeometry x="36" y="-820" width="170" height="30" as="geometry" />
        </mxCell>
        <mxCell id="6JiF-p55o-i1GSawW8Ff-41" value="" style="shape=image;verticalLabelPosition=bottom;labelBackgroundColor=default;verticalAlign=top;aspect=fixed;imageAspect=0;image=data:image/png,iVBORw0KGgoAAAANSUhEUgAABjcAAAAmCAYAAACI5Mk7AAAgAElEQVR4nO2dO3KryhaGf906Q4EduDQCGIFwsiOnyppQJM4cOnMCIcqUOnLiZgQwApWD3cylb9Ag8WieAglZ66viVB1vxGv9dNPd67GSUkoQBEEQBEEQBEEQBEEQBEEQBEHcCf+79QUQBEEQBEEQBEEQBEEQBEEQBEEMgRY3CIIgCIIgCIIgCIIgCIIgCIK4K2hxgyAIgiAIgiAIgiAIgiAIgiCIu4IWNwiCIAiCIAiCIAiCIAiCIAiCuCv+q/5htVrd4joIgiAIgiAIgiAIgiAIgiAIgiBakVIC0CxuFP/xUVitVg93z/cE2WfZkH2WDdmHmAvS1mND9n9syP4E0Qy9H8RckLaIuSBtEXNB2iLmohicQWmpCIIgCIIgCIIgCIIgCIIgCIK4K2hxgyAIgiAIgiAIgiAIgiAIgiCIu4IWNwiCIAiCIAiCIAiCIAiCIAiCuCtocWMkaWDDdiOkt74QQgvZh1gqpE2CWBBpiihKNe9jikj7kqYIbBfBzV/gFIFtw9VeO9Ebsj9xTSKX+n+CIAiCIAiCmJjxixuRC9t2GwZ/Q1GDtPIHf4q0OGiLArgLGhAYz29YHx2YK3vcIDcN4HY9v8jFapUNXqMe955GCIKm/SK49shr7c1SrLNQ+2h+P907BKRRhKh2ijubSE8D2NkzHfHjS06cTRRdcIieXKzNyUiRphdsTUcNXNiVtiYNbKwubH/SoHtSSHfubiIEbvk9jFwbbmNbegMiF6sJ24r5uSdtfePd2eK78vs02MIxNW1C9AEv2eOz+gP9BfdszyJEI9qePy9rHB0T5l1pI4K7WsEdYTCyfxmy/zR9y/nSpv0m05ECwN6BaQeD+xfqA+9J513MfSMRXNvVtj2Ru5p9XKDey+Eav4jJNJIisFewb7+CPSnKJi6Cix8QaWs8v09bkWtn/eYknTBpazR3rK00gG2Xv5Uj19bP+w6aJxrh/JOmmETK1cOStq6HrKD5kwYhfQsSli+56LF75+F8aQGS8eIfuWSABONSnPZhkuuPcBH97lmHkNy3pOUPfwjCtyTA2p9ffs+i8ixGHlP9OyQbZLTs3D03NoOBfot9ymS/GfUOCSmEkIJzybkvGbNOz99ifuEa1DnmsEmR8fbRIHxpwZLNJtPr0fKF5KyHRi2/0UbK5m3nnpLx2hxKo3046/1e67amaxe+VXvOwrckikLM2vz+bYjqc2rnFL70i/tzVjk3l8xirTbV2V1wXzILElZHG6Chlw57PMfKQVu1eyt+hbZavi2ULYvaaNBhE53tmZQy7z/Gtj2CS9+yZm/ndYxr+7lkI++V7K//Pdn/kr7l9MNJxzVCtHY60rKanoGQ+p9SH7jEPrCNtvcjH49N1TdKKaRf+v5XetFpnrMBbdgYeozXl6+R8e3UNRjT9qpnPmYehbRF2mpDSMGZtKyh8yDqt6Qt0pbu2Tfae8B88Lh+dobnR9qanaK2xkVuRB/wEgv+YYeN0e8nbatg6fcnEjD83RTP8YU9LPivGxgAYPzBGnt8XcGzukjkrrBaNW0mHC9B4pn6f29coYvw4SWw/Nd+z8/YIBQ+rL0Ds9G1XB2T8bDxmMYuhuAMx/ePmod/MyaeLIBxCSnbNgHf6n3Qybgf+1Sv28EeDDzu/w6dSL+xNU2Yzjve3z+x3wO+EJBSIg53OB0u+sK++l5dk4aXPr1oSdzEk2XBF2Xdrf8Y2IRnPQrfAiwfQlb+tv6Dpsdt7GIIH/DM3OtRrVQ362uF1cptfJfm0ebEVJ5R342zKU7OwHu2IWmwhQcfh13Zeun3Jzyn2QZp8I59AvxpvIYIHx7gixjFQxubHcJYwMcRX2KYJUzVYM7+HNv1pbabelncibba2ISV30UfWh2OJg1gmw72lg8hyxo8n9Ntt7PpwEsS7J2Wfa4RkrYoyP5k/4H2n3JcE7kwzYa+fbXCyvSQJAk8U/9tYJr1Po36QM2VL70PbMH4s9b3kcKHVdNv+Vu3kaOnoriudxtaog8P8F/RNvRYvkY2ePUB7+PWT3MqInztoca1Y35O2qpfy6NpKw1gN4xnTWePJIGKShw4ViZtaa7l0bTVSlr4L7L54H4Yu7j32FP4FgCr9i00BaStKyMraP5UpsUrqn1rWrHSeyNxhrI3ltR7bU1B2z3PsVLc+z6qK33cb1wxqx4z9xq71Ju9bRV93H7D+Q32qR2/53vTGWXT5XV6BXdOvX3aIn5aVn47PV2F9K26J231NnX33vd59NZUx0r87F4mPWl8fy5Y0dfdW29dM97w7JrakAYtMX76zek+ivekjQisn294X9Zu15on8cDn2LDjIr1W719bsr7/oG+cLq/85vZMcCYtWJJd1EZkGm7ylmvzHp+Azu9FLcO9f8j+jScg+19qf3WCacc1nNX/rak/0u1bPyD1gQvtA9tofT+a7qfxu7LPGKuohXz/vjaeyCOzp1ftfWhkuZ6qg9tezi60MWmLtFWk/frrUa9tkLYeV1t9ssNY0vc7sgFc9PyE5MwaFaXa7/CkrWtQ1NawyI00gG16SBjXeGRyMLR5+If6Fav0G5+JhZdno3Se9z3AKi7nxvMLrMTDUhaNVG7bgavNaYCtlwCJV1rddiOVh7jm3YU9nPz/HS/z9Krm082iNt5yr/0IH6aJlR3gHwDLF80rgNO4yS6S5dineHgbpodC5IFuU++S5QuEg8M6cpSXDvbOjbw5Nwh19yZ8WFjjD9qjuXJGRXmkAd73KuqrivVk6n6AKIgQZUkJN6FEPPWyfe0SR2hzETTbI/eQaIyayT0SwiF+YykC28Fe580QbgAY2MUcLPms5MyP4G5VX9V0ujTYwksa2sdG70m1za2Px+Ta2mqjansOhnPEmBDndnowaYTAXsF8B95EjLCHliJXX8A69+YW4QYG0kre/BTB1rxBzaWuiDcHezR5redbuQ8l+5P9Z7P/HOOaRhoiaa0nnL9MqtaiPvDXUhlnaMcVBe9oL+k6oIFdLMAPhQhuGNjFda/Pus2n8VZNvz87PVTvB+Wp2qu+0sKJvvaA9YLn0TYmbU3LvWsr8+I2NfMd+Rwe72t30ta03JO2srkizffG2d4xdruw8l1W+TaJd41ZOVpJI7i2Cef4AhE3Z765BNLW9em9uJFGrhoAWPlAahqiDw/V77XoQ52nNjdp7PDGgH1LCPZ1OSJBcVDSRQRXzWzXBgrhRjMZ3Di4KDfmafCOfWEAkwbvKs1BvGsJRX8ElmEfAOcJjSz8/7m5ZC4C28HRFxcNHk8aaFk8qS4ezkFtbUL8ILGeYAoXpm5yw/SQFCY+THM7sDBmimDrIWFvmQ1SRFGEwLXxvm8K6Rf48hy8/xt7l2MYqs050SzcNW5D7XEJKQLbPE3eNbNBWHvnNggPovF3+SKj1ZWqRFfs+ioVTSsThM6+PBFy7aJko1mqtgqhuaXJJBuByHbIitbVrilysd2OKdCWInJtrEwHn2s+6EPafDrWB5FpgO3nGjz7qE+DLbz9EXkzFrnq3TlM+L3Wj/qgtMmZotnxYvqw8Cpk/7m4D/sD841rcv4FdvekdbVtL7WD1Afefx/Ywoi0VL34dmH3WgyZmhTfn0l76qyJzze3Row/aySf33eitabiucrZ7ewA2XGUtpslbT2otuoYuwN8K4G3LT4LNQaHLxoX1RshbT24tsrfR85+znOliAL1PX58EeMXR3qch7R1A2QFzZ/OIeGtoS0jihefQsELIS6dYdTnQsxTRcXo7vl0tpbQnyEhRFLwrDjfgOvuEcok8sKtliWtbCs+z87Qpc6QpWUXFF+6fdShWabzLOQt133tXCrlUleoWWuqMcuXovoOCS59zk/hdlOnd2u0jyYMutMmF6SlOhXA1BSlQmv6j5GF1y9ISzVImxfSap8JUwflNKYQGVP0VXDJtXGijbHQnWn2OLNO5xlawKu7HxxewKxPaCln0/Z5U3HX2irtX01LlP3/KWVMForLi+1Tj/DcYnsmuGSW1Z1qsIFSMdDsHi3Gsn6//B2lND6mcOgw2vrmOnkKJaaemz9cI2R/sv9U9p9tXCNlS1oqjU262krqA7PbWmYf2Ebr+zFxWiqRtS8ApMV8ycUNCvPOWOj1dhpZZhoOnbZGvcvarWxD0taja2t8+sKuvoO09ejaqtLnurlkl37fZt/ms0/DkLauRlFbvSI3jN0BnHOIeAejsaCQA5UFR/Nv2pUi5SWfMFYI7c+9rjVRGyc2CDlTK1FL8NxpS/uzWuGU+cfYIDxwMGjCkPNCS9XCkVpPr0q4/uYvfJ+DHw44HA54QQLLP5Q8uBqLFuereq00pBdq2CbLCjEVN7aPOnSIA+cQMvPUNHaIRX6uzAM0jeDaW+AQd0Zs1ApnF7284md8b6uRT//w6XwBWSSDwBr+2/P83pybEJyVvTrET9KQGmoIxZQWuZdHCvHlYZ9Y8EU5VYR6Xir9x83biyJ9tXmP6FKH1OhR9NUw8e9d135l3q3Vd7LmBVt4f9UBYf59gc/PXkWDU3L08fCYtChYlmIu+UFe1zUtegR3bUvoJ6dkKm31YRNCiEI4sblD3OZVXvVwzqMARIoUJl4PB7yaqHtCVzftpQj4uV6MZxyEQByGiA8vQFIugmc+vYCLoSlzZiYv2Pz6V/3/81+wMWlGyf5k/wnsP8+4ZgaoDwT1gV2k+N46OK5fwIVEHO7KUWFZ5HjRI7Y6LpzkezOPzO67/11oxMSTleBHaP9xURTHhuftnOZY/45bmjTJxb6DtEXaaonGHLqV+g7SFmlL0dw/N0WjdR2j6xtbFSV/6tzvQkhbt0FW0PypQtOKzRAPJ1HwQsuPl68M595x7V4Ffh6xMMHqUds9z+V9rT1u1ZOntuLXsVqm8QQat9K9rOW4X2Of+hWePW0sf0Qho7M3RelaBS8fa8DK8Rja2wzVLqjrqzwfXZTGpQXFeXvRKb1WKHLjdF2NRyn/S+e9VY9bvd8RRV97vZP1i+m0UZtetFuH3SYvClbSdHsBv2sXsP8V2pqsoPSwKMdxGhPSZ8X7z6MBpIrQY/7pPoTvz9bm53R/L+bo+4GhUYRkf7L/HH3LNOOa4s+aC4pr7d3zGVAfuLw+sI2292Ool2b7N6wOLn3LkoxPn+2g+ZSst93vRyN9Crlfn75tr9KZ/v0fH8VP2hp9rPKV3qW28mwIltVnQ6P+Go5O2hp7rPKV3o+2OuZteheXL9zsZFFslz5A0tbVKGprWEHxqYi+8X4EGD97B/x8f+MHWQGizQ6xlFl+3ornkPBhAfizCSG5D58frpKbd/lEcJ0j/EPdo6o1ckOz+h253fuTt9QEpAJfRwuMq3x/gwsZRR+n3JSJZ8LOQ0aMzSxFkcahIq0Sb4sg+MIea5xSDxrPeLESeINdNzvQ1hpRnpvXy3t4h6QBto3vsznMQ6biOWpeP4lqbwZ7rV41PC1F8L6HZalCupyv4Zk23KvkPJ+Qe9KWkX1/9NqKXvxNdZmKnpGqHWquNdCuscg14R2z/0kjuPY7ng6x8sA2TODo4T1IofK8enAW0genwTv2YHirfKwZuwN8eNgOKbZC9leQ/Rfft5Ro09Vs+Z77QX3g9TF2sUYLWYRRi/dm/1p8G+ziOKsXKODDg+lGi2gPpmdOjRj4s57gMDchwoeXAOyvJopP5YK3XsZE8ZO2Hl1bln9AHMeF7Q3rBHg5xOW/H9ScXX9IWw+nLfMJ1mnehoOdvpnziNtK5FBTxFnhu0QfxVbciucZ/i2+fB5bW7dZ3NjsEMflFEZPzzuEsSatUVs4z2aH3XJmcUuMlk9x4FZLe6RC5HVnC+x3gJ8H2iqcKsW/I06TvZzlgxjVYDBebDzOtIW2qt/03G48YGvjuvapnlwVuF6ZDvZJgr3TtphUTCdQJvraw2JMDUCFDxQXONIAtu0iKDVkqtCQfc2qvcA5PZW3r3xkG9i9MWD/ftVCwkvnto9CN5mhPgIGZRPrlTqkmtJtZCG5WgqOwmZ6uJOpLz3pNz4Thrc39SVhbkIIHzjmVYObwmanCKednDvU1uQYeH6xkHgfje16E2lgw9kzVUA6DWCbDvZY4+fDhWvbsO0tPhOoheTUwC7mYMkCBoaRC9NLSs4sZ1QfoK655/HI/mT/e7D/aewyLqnCIKgP1PxuiX2gQhVs1qXBEPhJAPZkIooi7Ra4mgXLamoyjQOBlwDYO806aRlr9L6vf8funebgCho5/luqmppRi8oW2F/NB1b0AS+pLzjX9yNtkbbqJN4Wtm0XNgd7JPC2dvnv25b+h7RF2hpNwVF2wZC2bsNtFjd6kv47Aus/5Qly8XPFD3W1OKC8vSsV6HOPsYa8+XVPtLQ1d+Bpwrk4cKt5TnHU06xFcG0THoDju33KG2yaHxBQH8qTPIngHXurrRbKLbgH+xTOEAVwbbWo4R1fNNEFOs+5BiIXzp7h7fVJ/b+xQ8wZ8iR46fcnEjzhubT4N2IiYSI2rw33snmFP0f0xs2ZUpu/EPGDpDMvevs7ucrd/bWROj3eoQxtZJu2nk5xq9fWKdFRT6V4T82oGlTwX0uTgsYur8uTItiamtpTEdytCfOui7ZcQC9tddCYg7+82SPeVWP3BoZ95mHf93JsmB7O9YSMZ7wwBv/lL/7+fcXr4YDDIUYspVpI/oiQYoNQ+LD2zg3blAius4fli+Z6XPnit3n5IBUA2Z/sf7n9J6R3JLT9rRlUUh/46/rAyIVpqok70zRhmltst/mW1Xj53OL9/R1fX1/l7f0d3v4HtVTXm7BhHCFUbu42fZy2y2v0GEPdOe9II3cZ9f38Bp9BOdCVnN3ydvm12+akLdKWhnrkRuYJPyRyg7RF2gLUN9vJQSNbJMv6yLNTSvuk+1JnTUhbt6Hn4kaaeZpcwvBjiKlm5kdTXxzojlxoSn9TDqs6R1Go/+8falzFxNOagb284O3tgIMQ5wY//Ydp1gyz0NY277C+A55JWb590siFmw1OTcfDcf0Cn106ys7CzaofppsQcbhBHm7M3jSRM5oi3/OjGtrEsmDtnUoKmjx64wv9ouUEfpJ6QfHSCrJWp5r9ZmVKbd4D50kYU9NWlBdzskmsziJb7e/k5eGiagGqM0WMdmspKgxMUhQsDbbwEgsvzw0nyjzveC1CboMw5mB75/pRWrMwh7aqHPEvW3x2IwDGH6ybUrL0sF07hVR9vc2zBvOLKTgN7MIQu90GG3xgu93iOz96KCDCjdKEsUMsxAXfF5cQwV052Fs+Dh3n34QCvrWHY7uafoDsT/afw/7zjWuKjll5JLSKMNFoKk+/q410pj7w1/WBtQm9wkTgG1MTetn/h2FY3t6GTJSkCGwTzlE9H0RuLVVwGtjTpw8+/ut/vLvQSJYB4Q4xjA12Yawmi1+AT8fEyrbh2v3a5WZIWwAeWluTRG5oIW0BeCxtbUIIIbKtni4q3Kjn1Zw1ZbVMR4Yc0tbV6bW4Eblm5mlSXVUrbpnHidM06W3CHOSZpR4e+6v5eB88cB1J+g9HMOguYTYGpz1Sg9xwt8NmY8AwlFTTNPfePx/z7PWlJnqVrfqE62tySes24cO6ZqjYHdjH2IT4u2bwuYCQEnG4w/PTJRegOv7WcOLoAx6ao2w2oUpXcS1vTtXQMvA4xsG3sH+vfJRsQkgZ9qwTotfiafJG6wkiIMRli1SDuYU2J0Hnqana/J+au2CRak5MUfC4ERXvmxCmLipvLKNTchjYHVQ6t16etcXJs9lJIWoTmkW6PO/GTKDOzbK0lUYBXNeGbXpIkMBzPnFcr3HO4NDmtdzlOdNBFiLsmf2cAYxdiLCl7UrwgufCxHdpT+MGE9vpeWJb9EpPaWB34GDJHo5pV9Ipkv3J/tPbf85xjfhJYFVy7Rm7GJzty3VQ0gC2czxH5IyF+kANS+wD28iclrpqIPQY/6aRC3tlZt/dSlvG5lXlr8/1lwbYeoD/NqbmQgPmE6xEE1kyG9fQiMBPMjB15uIwsNmFiKWAjwT7BEDyiY9oeOo20lbO42pLLdjH/SI3YtUv9+nfSFs5j6WtFIBhGNmm36dUo0pXD2yptTFIWzeh1+JGd2EWiX41GQZ8wGcrS7ecHEy/P5FcZSGl8IExKu1RijSNEAXnKIHtt4q2YIwNrrkxmqumDLsf+2zCELuNMVFHbOD5zYevzV8N5A2XNmrjfEXXG/RV8m0bu7dJFlaiwIUb5HZJERUmQ9LIhV2YQIjc7cCF1cu5njYnpKOQbv9vh2LIo1qMK4c/ZoUML+kZ0wBBbtALU3KgT1ExKZWH7dVsqgajTROaketoC/SWuEmUVgML1JaBHxyPwNrn2eJnjDgsLrLO47mfRi6CSH2snya4G8PWIrhdk43Ka6E7qvIqxaVTRIGr6kFkE9sIbO2CVnUi2RUbhIKDWQk8x4Styy1P9if7T2T/+cY1Eb72+gjMTShOEzVR5MI2P/EiOiIgmqA+8L76wA5yJ6DOGgj6XyONVC0/e7WC+Q68+NUGysAuzvXnwt1+Ys3jaetWGs94sfb4utrH9hU0En1hbxUXj++VFJGrPHoZF+D+GkfHhLnqKjJL2tJB2mpA6GoJNemLtKXjobSVBth2fh9ed/5mUkhbN2GhNTcG5IOcizTA1mtI7TPpeVTNjLGTvZGbe485cD6PwIsPLgQOyGpk/J34eltI/x2vGFVzH/aZA2Ozw073YqSRCjdmvHuycPMK7r/gzxwXeLocF3Yt3/YECytpgHdvD/zJFoyiDzjOuUCrYT4BiYe8jMcmPGQpL640wL2WNhdKHhLpH3YwTh656sM0AqAKXbWETHafALbp4Wfx0xXzoAoLo6FAb5nNqw+r8C7cO5NqaxOq1B+7zXWc29MIrr2C6RxP2jV2MQRf49MxYWtT8vSImuSsX27iXh70U3AEGD957Jc8rk4TxvXJ1FC56SGMBXzG8PZav16yP9l/1r5lCqIv7BujNs/X7Dh7wH8bN0CkPvBX9YFp5ML0uu9HW4cSACDw4Tjwjmu8cAEZh9hVP+7TCEEE7GIBvj4q7/1/0cQKMvBnvYxCo1NpJFIrlff9LZ+NY5094IsY4eYcyZEvcpRrchQhbVV5aG011iPLJqWdvJZQedNnDSJtVXk4bdUc33Tfh5fXVbkdpK1bsLzFjTycnfEb5QkGVFEVD4lVT+3THJ5+DlPvTvOU8fkB23RwfOGjc19uXjl8nuXLjWOVngrfN5hczTzmukKqJ+F+7HNVjA3CWPYMzzOw2e16poIaSorItWGqL+n6e7x5BedNIXPdxw62HpLiAs7mFX5xZdzYQZXxOP0BuzibBJk9L+OVtLlQVOHbBIwXvFGNDULJwXDEvzS339s4+39uM29XiXAe8U7DJEXB9Bi7AzhvKdBb3hkH0XPfhTO7tmbk88PGynRwXHMIGZe0a2xCxILjZX2EY66wWtmw3akHb9fCwGYXI85rPow8xi6spykk+98Dj27/FsesVHmorsx3HBmH4D7Wnw7M1Qq2GyDomyKG+sDf0wdmmjCdIxiPO69Rl+5MkS2CxmHdo7mgux8AgIFNqBZVj54Dc2XDdgNE6fAURTo2rz7gffTztF28RiJ87S34TTl+F06aRnDtct9TbhuzRQ7BwbDPIuaqliNtVXlobTVGYeudFtqjs0lbVR5aWw30t+8AJUxWk7gb0tYNkBU0f+oJlwyQjI/5nSV9IST3LQlAgnEpSvsIyX0mGbOklf37lOjuWXAueekihPStPvfXZz/1rABL+sVzcCZh+ed750xaFpM8vx7uZ8+q/fycWefjVI952k1IzrnkPpPWILtx6fu++m32e8Yyu2XXOjW/yz5SilznvbaOZyp8aTXsI7hfsPE8tpGyoc0QXHLe8SAKKB3lWmq6ViE50z8TzirtAmd6+wHSqhloSNslJPd96XMufUt/LfNqcziNbXpT29CA4H5mI9VmVJ9jruv68y2eUvNeiey4lvq99v5F9k5arPxsG+6hpP22exS+6lP6bj2el/Ct3n0UZ+3Pq7Bjw7mF5L5qi5nV81gT8iu0pT9a1ge0b53PO2tzYLHOfkFKKYXgklU13nmpw571lIz7XuS9+skiZP+Oc5D9J7Z/8VoHfBsUv0+E+lY4jVtgSas2tsltXv4m1O1HfeAy+8A29O+HyGyCU9ugf9+Vfk7jrIEaPo8z9LorXYtuvHMBfWx6DxoZco3XpqntFdwvtye9+5NMb336KdJW8WwPoa1h8xYtW8c9k7ZKZ3sIbZWpfB/m39C9tu75UT8bZ7KG+Zu5IG3NT1FbC1ncyH+nJtx1j1g1eG2N3Xj63fOwCcruQW91AlS2DlJPgzs2cBDbImzfgrQsSzJ/yDMV2aRu1vlYlmTMl/6g0fgwfpt9hG/1m4wQvrS6Guu2ffLJ/KGTJQMZ32acOX3QWJZkTRebTQLo79Wv6VjUZwca2pdhbZeawFDvjt9z0mNSbQ6kdQJ6SOeeT4JYTe2w6FjQUguv9fsT0rcsaVmstR0RnNevtbDA2HStjXo67dfz47jpXLXd+i/Aq4Ww7pO3tRmcKS1azL/ah1rOb9GW/nradaHO13GHnM3yzVI9xzU/0otca3Kb7N9+DrL/xPY/MXZck/2aDTu3EGoiu+nZUB+4vD6wjbb+sY8u8gW7fJw1SMLCH/TtL3rYYNC5O9qk5WtkTDt1PdraXs6y+5zr2klbtfM9irZmh7RVO99jaWve6y/O37R+F00NaWt2itpaZX84sVqtUPnTr+cR7/meIPssG7LPsiH7EHNB2npsyP6PDdmfIJp55PcjDWyYP2890+Quj8hd4f1Jk1Z3IZC2SFtzQdoibc0FaYu0NRdFbdHiBh7znu8Jss+yIfssG7IPMRekrceG7P/YkP0Johl6P4i5IG0Rc0HaIuaCtEXMRVFbyysoThAEQRAEQRAEQRAEQRAEQRAE0YI2coMgCIIgCIIgCIIgCIIgCIIgCGJp5HlFXfoAAABgSURBVEsa/zX9A0EQBEEQBEEQBEEQBEEQBEEQxBKhtFQEQRAEQRAEQRAEQRAEQRAEQdwVtLhBEARBEARBEARBEARBEARBEMRdQYsbBEEQBEEQBEEQBEEQBEEQBEHcFf8HStwLHBqGR90AAAAASUVORK5CYII=;" vertex="1" parent="1">
          <mxGeometry x="38" y="-789" width="1591" height="38" as="geometry" />
        </mxCell>
        <mxCell id="6JiF-p55o-i1GSawW8Ff-42" value="" style="shape=image;verticalLabelPosition=bottom;labelBackgroundColor=default;verticalAlign=top;aspect=fixed;imageAspect=0;image=data:image/png,iVBORw0KGgoAAAANSUhEUgAAAZkAAABTCAYAAABNoXqoAAAOcklEQVR4nO3dv27qzJ/H8TercyO7MhTIV2D3u3LSUNHS2SWRduko6fgVdul0bqnSxNZeAL4CKwW29lZmC/4ZYwgk8XPOST4v6UhPwH9mvh74zozHPJgTpQkdDDT/+SY1xhiTGn//32VonLPtMOCYsDQXlCZ09se6JjW+E5rDYcrQOLXjpj4GxzFO2z8wTlsBytA4fmrKNDS+Xzv22blS4zu+SdvqkPqNY5emLEtTpr7Bf79Wx8Nci5GIyPfxixMW07VhyiUesfF2m05Zm8tbXlawqcCz2t/Ngh4Pzw5OmHDYxJqSlI9YhxccwmTNtOUYVeQyuXJ2y5sSe/UdNhSnGxCvPdpUm6LxikW57PFQOPjzuLk1UbDkreU4RZHDMjh/r4DROqb97CIif5+eMcb87kKIiMj31GM7zSUiIvIl6mOXX80X/lS9Xk/l/EP8hDr+TopvtxTfbvV6vZO//+03lUNERH4AJRkREemMkoyIiHRGSUZERDqjJCMiIp1RkhERkc4oyYiISGeUZEREpDNKMiIi0hklGRER6YySjIiIdEZJRkREOqMkIyIinVGSERGRzijJiIhIZ5RkRESkM0oyIiLSGSUZERHpjJKMiIh0RklGREQ6oyQjIiKdUZIREZHOKMmIiEhnlGRERKQzSjIiItIZJRkREemMkoyIiHRGSUZERDqjJCMiIp1RkhERkc7cnGSqqqKqMrIoIghcem5EdX0PIjcgqm2UBS5B9uGydqAict2TMsK+nNdr97nTRrhuRJen2J2IKAha6tfDjartNe26CDfLCNyI9uaxbXtRlLWWNwtcgmYl4RjnKDqLQeMAuIf2nBH0TmNW/TlB+hpVRtDr3dzGFd877eJSXfh+afru8f3V+moVEUxWFPu/bRueC+xwzmgwYPaYMAOsG04waGw07H+itK0yAndxLOsJm/k6xjt7vSLLoO9ZDGy7UZGMl8JmFN9Suw+ypiTzgEk/ANNWvqaP1BHIljwVQ8pGVfpDB3tgQRkwmcA4iZl+QXWzwGXRXsh3y1pFC57tOTEVkdvnCQcHgJwcB9+2GQ5HlBVY1smOLIoxyaXrZQ/wpn02rkuUrM/rWUW4DwXjMt41gz5DZ9duq4xoueCpsEmTGO9k34ooWPJ2rboMGc2mjf0+7v74Xms3kD9MKJx3jvHD4vsyWhO//4E8qjIqvJM2mS2fYFxiYfE4t+n3AwaXPuc/JL7mfaUJHd+kVzcJje84xqn9AwxX/nYc34TlDac3xlwuZ2p8JzTnh7lW5uM+qb/b5lB+DHBSD//WQl4oZxn6J8erx8O5KR4fqWNpQsfZHa80oX88dhk6xt/vVKYmTG+v36U6GmNM6jtXrucdZa1vV4bG8S+1vNKEDgZq8TuJdcu1rB+qDLfbnL5oQscxvu8YB8f4F2Nz6ZrUtrgaj8u+Pr4f9YPjm7Z/Zpuf0TINT+tdhsbh9DqkfiMux71/RHwbI5nLPZ88z8EtOO/4jEniKZY1JV5Pa29URO6SQa1XlAUum1lLNv5DFPacdextewfLwfa/swB387njWtOYbWi28R3WeyRZgLsYMl9PbxjR3K6KJqzGCWuLiyMagIo+g80rWf8reiw5TxOX1aV3c5u07Y1syRPj1vJdVpEFE1bjErM+3XG6b4b169iy70Nhk85DFi/b16Jgyer5eTtymiesa73LqjmCAshXLIPLfcGigPE9VXrXB+MLu3Z2aUxjt4xmf2J8a7yY9Q0fSMubsvYeybIKsMiWT+TAwi1Y1DcsXNwFHEeKPye+jSTjETciW0Uuk7cxITaMC1Zv85ZKfxPPD7iFA+Rsc6oDeQ7h7ItO4BEnG9xJsEu+FdGiYJzcMmV2hypj+ZSTOxPcNxuKgjCZUUYByzconnNyXArHxraHDEcDHr8k8TuEbUP6baGI3GXL6xnBwzM44X2nql55Gc5Zf6jHYtEfzSljD6uKdl8GFo+zEY/xjFd3yeAk42Ys+y+MmlMezphZPL04bZwFLp/snzR8JL4146Q1Xq3l/Cnxrd0ayPMcim0St+f3TJtZeN72u3JRODjOmGS9K3cW4G5m53H8KfHl0j0ZYJsZJ6yGCesYIveNwXRNErm47oZ50tbzbRkJue5pRt/3xC40+A/Jn5i45/27qz273T7bhgXhfAh+Whu97BrGF4xkmr3IPM93PZ1tMnPqvVP7QhK/p46WR2wMMbtOwjBhallUgxGzxz4MCyZ8YfyPpbmzp50RuA+QpviLepCfeTiMmmsJHzj2uqfMCHDdWuuy56xnm9r9xMa+tdha3nmMLcsDKgZ2wUPPxXH25c5xwpL4rEJ/0UgGyJ8mtDSh9n7UT4nvYQYmI+jtZxkyAnc/8mhzPvKrIpfJakySwKRf+6zmOTnFIe6H5PVT4rvTmFErTbqbFzzO1TfnyVPjO2znENP0yrzehXni1DfOnZN95+X8jNT4zUnS2tz/yT2LO8vaWs6r9xU6dOm8tTqVZWnSNDRheO06nvqya1GWJk1Tczo/3Gwz780dt2y/r3O9/leuQfmBeecufW1b/6wfEt/U390zPm9rJ98HF5RpaNLS7O6T1I7x7vfH94/v6UimyggmCxjPGdsFq8WEVT2b10Yl48QwKyOWG5j+jtmz5go4OGT6tlU4Z8Pfw9TY7r3+8bU8z8FxKRZ88XTZnT5TxyojmLwxX09hv1S5LCk3G15WBXnex1052LtVW4NH76bVgmeuzvVfsu8JWniWBRcWLm/1GfJCyW2rGYH2aU9ycvu8n3/3iq22a3KD+6ZfTgr4ifjeu7/N/GwVUovvFN+d7KXAcRzGc5i4wW1xqNusWGwe8R4/XoaDbxjfG/NTadJwuwLi9sVIHY5kmpm99ndzVcRZT+TSqGX3txOWprw6QrujnNsC3V3fZjmbf1+v437Vym5liu+bMC1NGoYmTUtT1ntbZWgc7ltFcksdb+n91Xa+MpK5sDqntpqRw6pF36R39gSbcTu97ldWbLUc7912d6Mvje/Nbe98Vd+Pie/uXIfjl6kp96u00vJwnjJ0LowmUuNzXKXq1FeEUV89droK7afE98o9mVNZ0GcxTEnWH+zx/g2qiOXbds16GUzY9L0/diXcdRbTtWHafNnbv/LImCUlFa+TFePya1b85aslhyneIqegrRdduyl6I29ks9hUnHQtD3PpzVWMGS8frkHJ8uGFkbmxjRcLguB4tqLIYRkcnz0ocph/uDBnPhff7Yqktl7veL4+n434MfGtiCYrxskalrt5Gmt7Q33FmMSz2N/9tqZr5oFLkHknvfosWFCEyfGehxO+f+P/x8T37Mb/7mZ/S0PMc8BZMFk17obtlzDfesYqI1o8Y8/PbkP9c8o3GNbHtacLFo4LAo43We1xQvzBb+LspWA8+43ZqqrIlkuY7acALAb2Mw+9Aj9d81XPnTrj2SFGVVSwHMSMXlwWw+0ig+3Dbre3lSpyWZIQT0fYi1eq6Y373jHdcHrCDYUz5ObJUXtOXPu2yYKCzex4Q7iKCt5Z73WXz8V3++q4sTqtigJe731A+lvF1+IxSbCs+qTtMfFYcPIrE14858UNyLxdUsgCHoox5Vc+vP2t4nuWZCym8fq8B8wXPONSRbj9J3IcnDC9aQ16V6pNsX3i/eB86fbXPdOz+wWBfzjHVFnG6+aF1dNu3Xw455DnqoyXgu0SRu+4Pd5nR6nl4ScsyjcoyJjFCfNgQq8HTpjcfN03kctiNWZsL4mqmJG9YJlNibm0JDQjmLwwWo+OqwTrzxlUEe0rfO3dr1Bsv1js+RorC3AXME9GYA85/w6uiCZPjVVvnHVMyHNyJ2Lm3Tdyu+yz8W1ZnZbn2IP4/Rte3zi+VuMBkizo82SnmNaDeszGC5ZZhdd/xX14xk/N56/vN47vzdNln2ZNWZu29PUJtZv3p5m+8WHKc46dgIzlk83IfG1RLsmCB4pxy/LBW32kjlXE5GEF/pykjA8PYVW1n5kIk5LydULfhTQZsFks4IPTg1ng8lCAY8OSEaMBMAR74GFVGa/YhCGsVkuiwYzp+3eWeVqFlOspVhbQW2aYeM6L6+KSN0bBJW/5M08Ttj+dced0g/U4Y/Aa4K4K7HmymwaJWff3sYK37JGZZ9U+aO3TkV09bPxV8fViw/3N/vvHt+m9OFnT9e7zPCVJH7Gaib2+NLgoyKlPcxZwchP9+8f3nSSz+x2pHBw/JLn75CVvOQw+Wrr37DM+bFdNHDL96UNrVRSwZPtELvQZlbPjaovHecvwsmJz7/KLNlXEovCZf2Yo/ZE6tib0itflgrdRgtmXZ7qmJGDSf9qe54PF9OL12Ycye3kAIqLNgMd4+7tK08eMaNLHfUlJ4kujJovBOKTcT415M8JNSbV7kDVYHkdfW31GYcpsujtetaEo2P6eFGADZAG9h2ecsDyJx/apafDnCcnaOi2P5TGNPaZVRbac8Mr+vsXl33w6m9M+vAGjS78vd4PPxjd/u742r4pc+k/g+HPWZ+9+//helhH0Higcn3HSvoXVltAbDzle72B+//j22K4E+ODu/5xer4fK+Wf4CXX8nRTfbim+3WrGV/8/GRER6YySjIiIdEZJRkREOqMkIyIinVGSERGRzijJiIhIZ5RkRESkM0oyIiLSGSUZERHpjJKMiIh0RklGREQ6oyQjIiKdUZIREZHOKMmIiEhnlGRERKQzSjIiItIZJRkREemMkoyIiHRGSUZERDqjJCMiIp1RkhERkc4oyYiISGeUZEREpDNKMiIi0hklGRER6YySjIiIdEZJRkREOqMkIyIinekBxhjzu8tx1X/8z3/97iLc7f/+9b+/uwid6fV6/Olt5m+m+HZL8e1WM76/9i/+yf79v//zdxfhbn96TD/ru9fvd1N8u6X4/nN+/Q0ZfT+S+RtGB/uy/g1xFRHpmu7JiIhIZ5RkRESkM/8PHoh4aY9oxc8AAAAASUVORK5CYII=;" vertex="1" parent="1">
          <mxGeometry x="150" y="-1000" width="162.61" height="33" as="geometry" />
        </mxCell>
        <mxCell id="6JiF-p55o-i1GSawW8Ff-43" value="2） 店铺保有量限制" style="text;html=1;align=center;verticalAlign=middle;resizable=0;points=[];autosize=1;strokeColor=none;fillColor=none;" vertex="1" parent="1">
          <mxGeometry x="20" y="-1000" width="130" height="30" as="geometry" />
        </mxCell>
        <mxCell id="6JiF-p55o-i1GSawW8Ff-44" value="3. 波段批次规划" style="text;html=1;align=center;verticalAlign=middle;resizable=0;points=[];autosize=1;strokeColor=none;fillColor=none;fontStyle=1" vertex="1" parent="1">
          <mxGeometry x="25" y="-740" width="110" height="30" as="geometry" />
        </mxCell>
        <mxCell id="6JiF-p55o-i1GSawW8Ff-45" value="" style="shape=image;verticalLabelPosition=bottom;labelBackgroundColor=default;verticalAlign=top;aspect=fixed;imageAspect=0;image=data:image/png,iVBORw0KGgoAAAANSUhEUgAAAugAAABlCAYAAAAf6xa/AAASIElEQVR4nO3dsXKqThvH8Z/v/C8FLTJcAVwBSWNlawclaews6WygNJ2tlU3gCvQKnBSy98JboAYVjcmJyXrO9zNzZk6iEFxg99ndh1XVjZVpWKXlVzfOqzT0qjDNq+Yu8tSrJK/yPFXy0vfXyrxKj/9YmVZh8315WEmqPC+t8ubbyvLg/2UeVp4XVnnZcvBlXoVpc+u8ChvH8b5t26ZpFYbNY04rT6q85u+OvH9er/IO/m5jH55XhW1/sHHMadu2AAAAsEqnqqpKAAAAAKzw3+4/nU7nN48DAAAA+Gc1x8z/O/cCDnU6HcrnAsrnMsrHbpyf26J8b4vyxTW4Tux2PFD+v186DgAAAAAtCNABAAAAixCgAwAAABYhQAcAAAAsQoAOAAAAWIQAHQAAALAIAToAAABgEQJ0AAAAwCIE6AAAAIBFCNABAAAAixCgAwAAABYhQAcAAAAsQoAOAAAAWIQAHQAAALAIAToAAABgEQJ0AAAAwCIE6AAAAIBFCNABAAAAixCgAwAAABYhQAcAAAAsQoAOAAAAWIQAHQAAALAIAToAAABgEQJ0AAAAwCIE6AAAAIBFCNABAAAAixCgAwAAABYhQAcAAAAsQoAOAAAAWIQAHQAAALAIAToAAABgEQJ0AAAAwCIE6AAAAIBFCNABAAAAixCgAwAAABYhQAcAAAAsQoAOAAAAWIQAHQAAALAIAToAAABgEQJ0AAAAwCLXBegmkx9lMp/dexGp09iuKAoZU+8vyj69t7tgjJExhYosUxT56vgflZtR5kdqFkcR+YqKGx/ojzHK/I6iwqbzbZT5vtouQZP5P3xtFor8SFYVzwU/Xz6/xajIivZ712Ty/Ugf36JGRRbJ311rJlPk+/L3/67Zx9/KhvL987rXZL461lbWRlnUqOdMoSzalfn5OvDs3jJfvrWfFf+0IvpajGq5/z5+i1E2fJY7ruR8cufF4kVhf7ddocXjQg9loNjpSfNXmTj+9D6tYjJFw7nWu59dV3pZy03H6vd6Gj3NNJKu+oy9ozc9dL/3UH9XqH5Qf0CTRRrO10evuxrPpgo+KCiT+eq+jVVOg/NlWkTyk+b+XQ1mU8UnG7gnZS5JTjzTg9+Vr1LL2GnZ37vBbNmy388xWaKXlbQe+kouvM8dLzUN9hspGkr9WazAOVemLdvtt21csxe5Gi+nam7+0+Xzexx1exMNO4ncfKbp8cXp9g/K5VChqPOotRfKHfQ1no3UdSSpJ2mg2TKWI6PMn9zyA1jOnvL907o37J8/0l+3btZzG83VU7x/sb0OPKd8kwYjiz8rvsCoKKTg6P4zZhvqlqVeNwu9zV+0dnMtp8fnv1DkJ1e0Jy3tsCkUDTcaLb8hDgymminS0I+uiiXuxYcBusmGel5JSnytL0cQRyev0OIlVH+6+3Ghl7CvypGkQH030auJ77gBl+TEmi7jxi+MsvVEvTg437i0BEir1Ury1/KaP699zffvOBdk3h8nnuqgyHYN6ZWfLexfCM53BrM6eNzu+zONkOQoXpZSVkpypGCqZcvJLCJfm8/stk0RaTgfqKw+WUE5sUbjSMOur0251JPWp4G46g5NW4iyPrlXj7YzheScK+cfLJ9f5gRTLau6ATvsBK1U37Le/r3u+CjI9NJtoNhgNlq7vfselPhGP16+N6p7Xx59NQ716u1sZYpI3eRB5UH5Flq8uO/tOf4ei6H8Td1m7u5D13Wl9Vprd6DZaKQ4vnTiB4f3YhHJ34y2bfDuVy3tgRNoNF5o6GeaLWPp7EDT4OReLyJfbeNCq9VKyXB9MNjV1jbei4sBuikidZ9d5dXyPeA0mfyhTivHY9uA/D0+f1HYuLuD0UDJpFB8lyV3vtd4XOHvuQPNprGctqDen6jXGKksIl+b0T2PPupgZLVZJlbfLI1rO7514ZtMfiKNvzh64ARTLctiP4XfGiSsVnLzswegIppIo+PRhkKTbrKd6Wo55p8qn19mjOQ4kuQo2F2vu46fyeRPettOTqGos9jPEF1UvkkPT7c76DvyK+V7o7o3zC2r0xodkfe619V49nDm/YWiiTTdfggnmKrc+Op25krLbVkUC73oRWt/fTrT90GHHzZzFEyXUhQpM1PFzQG0IpK/eZLj3KauN0VRj3xvfE2KJ01PBu+kOtZqH+o5nqE1WaTJcUf+zp0J0I2KaKjHF1d5Ob0w1XiOUZa8SG5/+2OmZJ1q1uyEObFmD5H8rHvQ07oPgaZHw4Ym8zV8GyiVKw3Wmr/945XWfmT1tBG8likyld0nBX9YQWyySMlRz7zZcB2MdO1G4FpTQb5pVMwUioZzDWZLBVdMEbqDmab7P1qoKLr1lKRTz9QYtQcJ50bQa46C0YP87Sj8bvcmS7ROZ5qe+4w/UT6/rtCk+6h1Wn5cNxnpIR+dXturZw397TisO9C4LyWJNF7efeF8A8r3pvYdkaO612RKXh7rmQl3oMH2d353rkE+O9rFUlUvUvRqpFjKkrXSsjq5t4vI18LmFB9cJZhO1c0i+c12crXSSmv58+Y7T9Mev8boNUmkbqA4Xup7JmbWunoq/k6cCdAddftj5aNA3dejk7adfhw2z9pRD9pkQ83lbUeR6xz2lbzDbXZ7WzXyWe+SURYNNX+YaTmVMv9NvXipWebL9zcab/OED7UEZf5RDvJwO826T9e4L80pqINZBXeggeY6rAdctQ70buZaqK38Pqd3Jq3mo07DcSrIt6VtOM0O3mln77KutBiqk7jK/zTXzom1LHuKhr6i8VLToNBk7l4d5NysfH5doGlVKvO76rzll595cFpmGqTTFAxTSLO4cb056g3Weux0JIXKq+9o9O7Fb5bvn9a9R9uvVlrpaPbK5hHlcJdHbJT5z3ocpiqrZXv5B1NNg7qj/+yO6/TUIpKfPNRlbzIlL67GpL38FU7ST1tSVVo1O8tSa2C/Wknp6HjDzz0DcY3WmeRd9sL3/qkfcTbFxQnqStMc57d+lOKyS4spH5RMpCLq6tndVsJHJ7yIfG3GqeaPXUW98s6mJoyKbKJkvtZgPNMyqEtrx4mXWj4VioYdJQo1GPf1FOwaouOg7EzAWEQ6M7tjvWD6nhZlikyTTU+juP78RTT/8gOEJzdgS2O4eh7uK4dd8G+KTK9du555OJdHd+Dk89VTkpXJlJXaB+ifT3HZ7S7QdKl69YukTkGyNLT4YXWu/ZNx6npws9ZqvruujnKkr+lEO6fPpQTxUtXJlO6/4rfK9zvq3tOc2PfdZbLt2d9NEWmxGWl6kv0TKr8mxa43UP5Ul47ZrKXBqN7GibWsvv1w8WOanc0L1/RHjjvL1+ag34B16WZ/6IpVXD4pGKksHTnKlEjq9nPl3WBfCZ/oxlreWytlCkXDRBqMNXDXmidDzZtDMI0RmcGs0qjMNNlI8V904VzFFCoUKNCb1nr6lh7sNTeglx4+JCpJjt70PMz09JlKaDcdvNU+CvB1zU5MG5P5GurMkhLOe2fD+eNAL9BokKj7LLmf2ezG5fP7HDky2k2bhuOZHpKJesvlYc7yU8sVdZyC8fB2kmZV+4OG8e5RvrdjZIqJ5qsXaZFrNnX0pTXojJGCmE77X2nXWW3meTeC9qOR8JMHtXFz3x+gy6kf/tlWBk5wOH3p7uc0jNri9btwlKJwGBsZFdlQybyxdKAT/1W9umsVk0ct+pUCvY9qu4OZ+sdvNIWysqv4ljd/MFKadDUpPnEuwtziFI5CWdZV/PT6wbKJA42XlxtYk/n1ajJlT5NuR1FeXVdGVpfPdzDKhhP1ZlPpbSX1HMVjyc+Mgu3DjMl6oNk1KRiSgqfmw4+7/N1/MXjcudPyPZ7SP3xRqw+nrW5sm1eucCDXC9W/lEL04X7eNC6n2wd6jV7nK61WExXxv5SS9a857dTWzzOduYq+nOLy5w5moVvSzQ6f37o/ZwL0415U80O35KBvXV6hw+h1Lj0cPIvy/TlIv62Iukoecs2WX6wU/xpGm7Wnh5GksjmqLRXR0VvLhZ4X/dsG6HIUj0NFG6N7aVmcnquzEW+x0Fyj+jsFthVquVuBotxNMZaK/M25MXjtHwZfD/ZLqk2rXJHvK9LfNVX4JcVEc7evpWOU7a5lZ6rxwldUzNRfzOWOz+TvHqlXLYk1lq/MBIqVKdG4dYnKf8Zdlm+gaWV5Xoezm5U2yvy3L+3CFJGGiTQuG8+5mFfNlSpP50p2nSj828xG6x9PcTkc3D2bLnvHKcI7ZwL0Cw+uXbvM4sl2r5rrzGjI3dk+GNq6DqckL9FwfrQY1WcfVDCFsuRF7t0+gVPqbeWq70gqD1/p9l0l3Y7mnqe6w+cpLX/gc24ferp6rteCFI7V23a98QNGWbLWYNZSuFcyRaZJ8qy1m6s86EwGmo4X6jxG6pcfPIRqQfncUrFYazCaSir0poFG27IIpjNt/K4e3VxVSzVpzEZrvek1izTfVhKD2VKxpGA61sL35cvV+HRNsX+KteV7qe7dLgE5m3ZVRq/qTmM5plA02Wg0rb8gqYi6WvSvnIX6FUZFca7e2LVtx6Oo719YGARP2vhDZU93vhQw/lz5ppXb/+HByHJfX3yt9bsfN0hxaWOUDa8fDbGfo3i6VFv1/8drmJtMfrde9cZL8/sdYduum/vSWStNDzOb6y8ouV1A3vaQ6Kc5FjwbEfQVPi5UTAMFxsg49QN19cjjWH+yopzT7elhfObB7GCqsjS6uLqlDeVzS0VUj8A626UnB7N93bVfpWqdKMq0f/h5+6KGw7lWcjV4alkBwWwkuXK11qIwJ9/g98+wsXw/rHub36pt9Lqea2NixU6gvpJt+pyjYJQq6UYqbFuZp3yTXuby19JgdrisYpFF0tO2Q/4w1uwgLaaeaZu7uzJxFM8G8ru+VBKk/3XaUrjOLDhw/P02P6JY6MWtv2OHAP1PmULR8FHrQdmo8IyMKeu0w5sfwJ35KwKfeh38MK80Uj1SK/dBxlz60gMjI+dbOnCHD4kOtTFqTNMaGd3LtRdolCYaZoX09rgdlduNno+URb7m6zrlbO3P378FcZ8D+P7aQfpZY+T7eKLnxB0vUfV15n0E1WQaPkuD8nDWoU5hqwOXbidRmI7rQNKJtVz2FPkbPTWvdVMomySaa7z/KvoiqpfLTMejG6d32cbS8v2g7jXZUM/7UX1HTwNp+GoUx46CvqvHRaFpEEhOrHHYUZKNfjENpG5jD3T7GuS7sjDKmq+9rbV5kgI5B19CdnBOmlMCTqxlKfndjuZhfhTQ425sv89CrquhH2k8G12fwmUyJS/hzy6zaTL5j+vGjPtKz8PmN/82/A1TutVW47+XlWnleWlVXvu+Mq/SND96yaskrwrTD/dijcvlU1app0pS5YVXlM2JvAoVVvnHb7TWQfm0XCNlnlZpGFae59X/VJfX/p/nVWlZbxsevMc72qbx8/5fWO0vpTKv8gsnIA91/tor08oLPzgLZVp5XzjPV99fp3+wykOv0u76KPMq/NI19g1uWD6/7fj8lGV58P8yDyvPC6u8bLtu8io8qOPyKmxc/+/btm2a/t75/EH2lu+VdW+ZV2GznqmqqirTKt3/0bLKmwdQpkfHfFsn9csV92G+bYc9z6u8tmMt08rzvCq8VKG2tO+w1+F1UlZ5eHhNl3mj/d3/28Y2nte4nup26aPmoMrDM3FRWaW7Nv/sptv2/uhNzbojD8/vo0xPt7Xd8X3c2f5SnU5Hle0Pv/wiyucyyucyysdunJ/bonxvi/LFNbhO7HZ8fv73i8cCAAAA4AgBOgAAAGARAnQAAADAIgToAAAAgEUI0AEAAACLEKADAAAAFiFABwAAACxCgA4AAABYhAAdAAAAsAgBOgAAAGARAnQAAADAIgToAAAAgEUI0AEAAACLEKADAAAAFiFABwAAACxCgA4AAABYhAAdAAAAsAgBOgAAAGARAnQAAADAIgToAAAAgEUI0AEAAACLEKADAAAAFiFABwAAACxCgA4AAABYhAAdAAAAsAgBOgAAAGARAnQAAADAIgToAAAAgEUI0AEAAACLEKADAAAAFiFABwAAACxCgA4AAABYhAAdAAAAsAgBOgAAAGARAnQAAADAIgToAAAAgEUI0AEAAACLEKADAAAAFulUVVVJUqfT+e1jAQAAAP5J25BckvRf2y8BAAAA/A5SXAAAAACLEKADAAAAFvk/qKOKGOc3fSsAAAAASUVORK5CYII=;" vertex="1" parent="1">
          <mxGeometry x="36" y="-687" width="493.54" height="67" as="geometry" />
        </mxCell>
        <mxCell id="6JiF-p55o-i1GSawW8Ff-46" value="按温度规划波段的时间范围及批次" style="text;html=1;align=center;verticalAlign=middle;resizable=0;points=[];autosize=1;strokeColor=none;fillColor=none;" vertex="1" parent="1">
          <mxGeometry x="38" y="-717" width="200" height="30" as="geometry" />
        </mxCell>
        <mxCell id="6JiF-p55o-i1GSawW8Ff-47" value="一、算量前置工作" style="text;html=1;align=center;verticalAlign=middle;resizable=0;points=[];autosize=1;strokeColor=none;fillColor=none;fontStyle=1" vertex="1" parent="1">
          <mxGeometry y="-1100" width="120" height="30" as="geometry" />
        </mxCell>
        <mxCell id="6JiF-p55o-i1GSawW8Ff-50" value="" style="rounded=0;whiteSpace=wrap;html=1;" vertex="1" parent="1">
          <mxGeometry y="-550" width="1640" height="570" as="geometry" />
        </mxCell>
        <mxCell id="6JiF-p55o-i1GSawW8Ff-51" value="二、固定企划" style="text;html=1;align=center;verticalAlign=middle;resizable=0;points=[];autosize=1;strokeColor=none;fillColor=none;fontStyle=1" vertex="1" parent="1">
          <mxGeometry x="10" y="-550" width="100" height="30" as="geometry" />
        </mxCell>
        <mxCell id="6JiF-p55o-i1GSawW8Ff-52" value="4. 同期数据准备" style="text;html=1;align=center;verticalAlign=middle;resizable=0;points=[];autosize=1;strokeColor=none;fillColor=none;fontStyle=1" vertex="1" parent="1">
          <mxGeometry x="567.73" y="-740" width="110" height="30" as="geometry" />
        </mxCell>
        <mxCell id="6JiF-p55o-i1GSawW8Ff-54" value="清洗后获得各门店的同期销售数据，便于进行一个波段的首个固定企划。" style="text;html=1;align=center;verticalAlign=middle;resizable=0;points=[];autosize=1;strokeColor=none;fillColor=none;" vertex="1" parent="1">
          <mxGeometry x="590" y="-710" width="410" height="30" as="geometry" />
        </mxCell>
      </root>
    </mxGraphModel>
  </diagram>
</mxfile>
